<svg width="12" height="12" viewBox="0 0 12 12" fill="none" xmlns="http://www.w3.org/2000/svg">
<g clip-path="url(#clip0_1_46)">
<path d="M7.85791 9.47978L3.08494 9.47978C3.01091 9.4799 2.93758 9.46542 2.86916 9.43714C2.80074 9.40887 2.73857 9.36737 2.68622 9.31502C2.63387 9.26267 2.59237 9.20051 2.5641 9.13208C2.53583 9.06366 2.52134 8.99033 2.52147 8.9163L2.52147 4.14333C2.52147 3.99389 2.58083 3.85056 2.6865 3.74489C2.79218 3.63922 2.9355 3.57985 3.08494 3.57985C3.23439 3.57985 3.37771 3.63922 3.48338 3.74489C3.58905 3.85056 3.64842 3.99389 3.64842 4.14333L3.64842 7.55799L8.52083 2.68558C8.62632 2.58009 8.76939 2.52083 8.91857 2.52083C9.06776 2.52083 9.21083 2.58009 9.31632 2.68558C9.42181 2.79107 9.48107 2.93415 9.48107 3.08333C9.48107 3.23252 9.42181 3.37559 9.31632 3.48108L4.44391 8.35349L7.85891 8.35315C8.00835 8.35315 8.15167 8.41252 8.25734 8.51819C8.36302 8.62387 8.42238 8.76719 8.42238 8.91663C8.42238 9.06607 8.36302 9.2094 8.25735 9.31507C8.15167 9.42074 8.00835 9.48011 7.85891 9.48011L7.85791 9.47978Z" fill="white"/>
</g>
<defs>
<clipPath id="clip0_1_46">
<rect width="12" height="12" fill="white"/>
</clipPath>
</defs>
</svg>
