<svg width="24" height="24" viewBox="0 0 24 24" fill="none" xmlns="http://www.w3.org/2000/svg">
<path d="M14.1087 21.7456C13.7917 21.7433 13.484 21.6392 13.2307 21.4486C12.9775 21.258 12.7923 20.9911 12.7024 20.6871L12.6968 20.6684L10.6493 13.3559L3.33679 11.3084L3.31804 11.3028C3.0142 11.2128 2.74732 11.0275 2.55676 10.7743C2.36619 10.5211 2.26202 10.2134 2.2596 9.89652V9.86839C2.2567 9.55765 2.35179 9.2539 2.53136 9.00028C2.71093 8.74666 2.96585 8.55607 3.25991 8.45558L19.7496 2.33933C19.7545 2.33735 19.7595 2.33578 19.7646 2.33464C20.0301 2.24324 20.3159 2.22818 20.5895 2.29117C20.8631 2.35416 21.1135 2.49268 21.3123 2.69097C21.5111 2.88925 21.6502 3.13935 21.7139 3.4128C21.7775 3.68625 21.7632 3.97208 21.6724 4.23777L21.6677 4.25277L15.5496 20.7453C15.4475 21.0439 15.2526 21.3021 14.9934 21.482C14.7341 21.662 14.4241 21.7543 14.1087 21.7456Z" fill="white"/>
</svg>
