<svg width="12" height="12" viewBox="0 0 12 12" fill="none" xmlns="http://www.w3.org/2000/svg">
<path d="M11.08 6.53443C11.0078 6.46213 10.9173 6.41084 10.8182 6.38606C10.7191 6.36129 10.6152 6.36397 10.5175 6.39381C9.83502 6.59983 9.10947 6.61688 8.4181 6.44314C7.72673 6.2694 7.09544 5.91138 6.59146 5.40721C6.08749 4.90305 5.72971 4.27162 5.55623 3.58018C5.38276 2.88875 5.40008 2.16321 5.60637 1.48084C5.63646 1.38311 5.63934 1.27902 5.6147 1.17977C5.59006 1.08052 5.53883 0.98987 5.46652 0.91756C5.39421 0.84525 5.30356 0.794021 5.20431 0.769381C5.10506 0.744741 5.00097 0.747622 4.90324 0.777716C3.87686 1.09318 2.97616 1.72438 2.32934 2.58147C1.7637 3.33329 1.41876 4.22787 1.33322 5.16482C1.24769 6.10176 1.42494 7.04401 1.8451 7.88583C2.26525 8.72765 2.91168 9.43573 3.71185 9.93062C4.51202 10.4255 5.43427 10.6876 6.37512 10.6876C7.47356 10.6908 8.54274 10.3336 9.41871 9.67084C10.2753 9.02337 10.9059 8.12217 11.2206 7.09553C11.2502 6.99803 11.2527 6.89434 11.2279 6.79552C11.2032 6.6967 11.152 6.60646 11.08 6.53443ZM8.74184 8.77225C7.98363 9.34303 7.04479 9.62077 6.09808 9.55434C5.15138 9.48792 4.26051 9.0818 3.58945 8.41073C2.91838 7.73966 2.51226 6.8488 2.44584 5.90209C2.37941 4.95539 2.65715 4.01654 3.22793 3.25834C3.52827 2.86106 3.90049 2.52366 4.32527 2.26365C4.31684 2.38365 4.31262 2.50412 4.31262 2.62506C4.31411 3.96726 4.84795 5.25406 5.79703 6.20314C6.74611 7.15222 8.03292 7.68607 9.37512 7.68756C9.49605 7.68756 9.61652 7.68334 9.73652 7.6749C9.47664 8.09978 9.13922 8.47202 8.74184 8.77225Z" fill="#0F284D"/>
</svg>
