<svg width="24" height="24" viewBox="0 0 24 24" fill="none" xmlns="http://www.w3.org/2000/svg">
<path d="M15.3751 5.24999C15.3751 4.95162 15.4936 4.66547 15.7046 4.45449C15.9155 4.24352 16.2017 4.12499 16.5001 4.12499H17.6251V2.99999C17.6251 2.70162 17.7436 2.41547 17.9546 2.2045C18.1655 1.99352 18.4517 1.87499 18.7501 1.87499C19.0484 1.87499 19.3346 1.99352 19.5455 2.2045C19.7565 2.41547 19.8751 2.70162 19.8751 2.99999V4.12499H21.0001C21.2984 4.12499 21.5846 4.24352 21.7955 4.45449C22.0065 4.66547 22.1251 4.95162 22.1251 5.24999C22.1251 5.54836 22.0065 5.83451 21.7955 6.04549C21.5846 6.25646 21.2984 6.37499 21.0001 6.37499H19.8751V7.49999C19.8751 7.79836 19.7565 8.08451 19.5455 8.29549C19.3346 8.50646 19.0484 8.62499 18.7501 8.62499C18.4517 8.62499 18.1655 8.50646 17.9546 8.29549C17.7436 8.08451 17.6251 7.79836 17.6251 7.49999V6.37499H16.5001C16.2017 6.37499 15.9155 6.25646 15.7046 6.04549C15.4936 5.83451 15.3751 5.54836 15.3751 5.24999ZM21.9854 10.3125C22.3407 12.4268 22.0149 14.5993 21.0551 16.5164C20.0952 18.4335 18.551 19.996 16.6454 20.9783C14.7397 21.9606 12.5712 22.3119 10.4528 21.9815C8.3345 21.6511 6.37596 20.6561 4.85996 19.1401C3.34397 17.6241 2.34894 15.6655 2.01854 13.5472C1.68813 11.4289 2.03945 9.26034 3.02176 7.35467C4.00407 5.44901 5.56655 3.9048 7.48365 2.94497C9.40074 1.98515 11.5733 1.65938 13.6876 2.01468C13.9818 2.06441 14.2443 2.22899 14.4172 2.47223C14.5901 2.71548 14.6593 3.01744 14.6096 3.31171C14.5599 3.60598 14.3953 3.86843 14.152 4.04135C13.9088 4.21426 13.6068 4.28347 13.3126 4.23374C12.8788 4.16134 12.4398 4.12496 12.0001 4.12499C10.5217 4.12399 9.073 4.53943 7.81986 5.32372C6.56672 6.108 5.55984 7.22942 4.91457 8.55949C4.2693 9.88956 4.01173 11.3745 4.17138 12.8442C4.33103 14.3139 4.90143 15.7089 5.81724 16.8694C6.54642 15.9419 7.47584 15.1913 8.53599 14.6737C7.86034 13.9895 7.40213 13.1208 7.21898 12.1768C7.03584 11.2329 7.13595 10.2558 7.50671 9.3686C7.87748 8.48139 8.50235 7.72363 9.30271 7.19067C10.1031 6.6577 11.0432 6.37334 12.0047 6.37334C12.9663 6.37334 13.9064 6.6577 14.7068 7.19067C15.5071 7.72363 16.132 8.48139 16.5028 9.3686C16.8735 10.2558 16.9736 11.2329 16.7905 12.1768C16.6074 13.1208 16.1491 13.9895 15.4735 14.6737C16.5339 15.191 17.4633 15.9417 18.1922 16.8694C19.2864 15.4825 19.8795 13.7665 19.8751 12C19.875 11.5602 19.8386 11.1213 19.7663 10.6875C19.7166 10.3932 19.7858 10.0913 19.9587 9.84802C20.1316 9.60478 20.3941 9.44019 20.6883 9.39046C20.9826 9.34073 21.2846 9.40994 21.5278 9.58285C21.771 9.75577 21.9356 10.0182 21.9854 10.3125ZM12.0001 13.875C12.5192 13.875 13.0267 13.721 13.4584 13.4326C13.8901 13.1442 14.2266 12.7342 14.4252 12.2545C14.6239 11.7749 14.6759 11.2471 14.5746 10.7379C14.4733 10.2287 14.2233 9.76095 13.8562 9.39384C13.4891 9.02672 13.0214 8.77672 12.5122 8.67543C12.003 8.57414 11.4752 8.62613 10.9955 8.82481C10.5159 9.02349 10.1059 9.35994 9.81744 9.79162C9.52901 10.2233 9.37505 10.7308 9.37505 11.25C9.37505 11.9462 9.65161 12.6139 10.1439 13.1061C10.6362 13.5984 11.3039 13.875 12.0001 13.875ZM12.0001 19.875C13.627 19.8762 15.2139 19.3706 16.5404 18.4284C16.0181 17.7143 15.3348 17.1335 14.5459 16.7331C13.757 16.3327 12.8847 16.124 12.0001 16.124C11.1154 16.124 10.2431 16.3327 9.45423 16.7331C8.66533 17.1335 7.982 17.7143 7.45974 18.4284C8.78616 19.3706 10.3731 19.8762 12.0001 19.875Z" fill="white"/>
</svg>
