<svg width="12" height="12" viewBox="0 0 12 12" fill="none" xmlns="http://www.w3.org/2000/svg">
<path d="M2.22864 4.85106L5.60364 1.47606C5.6559 1.42362 5.71799 1.38201 5.78637 1.35362C5.85474 1.32523 5.92804 1.31062 6.00208 1.31062C6.07611 1.31062 6.14941 1.32523 6.21779 1.35362C6.28616 1.38201 6.34826 1.42362 6.40051 1.47606L9.77551 4.85106C9.88119 4.95673 9.94055 5.10006 9.94055 5.2495C9.94055 5.39894 9.88119 5.54226 9.77551 5.64794C9.66984 5.75361 9.52652 5.81297 9.37708 5.81297C9.22763 5.81298 9.08431 5.75361 8.97864 5.64794L6.56411 3.23341L6.56411 10.124C6.56411 10.2732 6.50484 10.4163 6.39935 10.5218C6.29387 10.6273 6.15079 10.6865 6.00161 10.6865C5.85242 10.6865 5.70935 10.6273 5.60386 10.5218C5.49837 10.4163 5.43911 10.2732 5.43911 10.124L5.43911 3.23341L3.02458 5.64841C2.9189 5.75408 2.77558 5.81344 2.62614 5.81344C2.4767 5.81344 2.33337 5.75408 2.2277 5.64841C2.12203 5.54273 2.06266 5.39941 2.06266 5.24997C2.06266 5.10053 2.12203 4.9572 2.2277 4.85153L2.22864 4.85106Z" fill="white"/>
</svg>
