<svg width="12" height="12" viewBox="0 0 12 12" fill="none" xmlns="http://www.w3.org/2000/svg">
<g clip-path="url(#clip0_1_79)">
<path d="M4.14514 2.51928L8.91811 2.51928C8.99214 2.51915 9.06547 2.53364 9.13389 2.56191C9.20232 2.59018 9.26448 2.63168 9.31683 2.68403C9.36918 2.73638 9.41068 2.79855 9.43895 2.86697C9.46723 2.93539 9.48171 3.00872 9.48159 3.08275L9.48158 7.85572C9.48158 8.00517 9.42222 8.14849 9.31655 8.25416C9.21087 8.35983 9.06755 8.4192 8.91811 8.4192C8.76867 8.4192 8.62534 8.35983 8.51967 8.25416C8.414 8.14849 8.35463 8.00517 8.35463 7.85572L8.35463 4.44106L3.48223 9.31347C3.37674 9.41896 3.23366 9.47822 3.08448 9.47822C2.93529 9.47822 2.79222 9.41896 2.68673 9.31347C2.58124 9.20798 2.52198 9.06491 2.52198 8.91572C2.52198 8.76654 2.58124 8.62346 2.68673 8.51798L7.55914 3.64557L4.14414 3.6459C3.9947 3.6459 3.85138 3.58653 3.74571 3.48086C3.64003 3.37519 3.58067 3.23187 3.58067 3.08242C3.58067 2.93298 3.64003 2.78966 3.74571 2.68399C3.85138 2.57831 3.9947 2.51895 4.14414 2.51895L4.14514 2.51928Z" fill="white" fill-opacity="0.5"/>
</g>
<defs>
<clipPath id="clip0_1_79">
<rect width="12" height="12" fill="white"/>
</clipPath>
</defs>
</svg>
